<?xml version="1.0" standalone="no"?>
<!DOCTYPE svg PUBLIC "-//W3C//DTD SVG 20010904//EN"
 "http://www.w3.org/TR/2001/REC-SVG-20010904/DTD/svg10.dtd">
<svg version="1.0" xmlns="http://www.w3.org/2000/svg"
 width="200.000000pt" height="200.000000pt" viewBox="0 0 200.000000 200.000000"
 preserveAspectRatio="xMidYMid meet">
<metadata>
Created by potrace 1.11, written by Peter Selinger 2001-2013
</metadata>
<g transform="translate(0.000000,200.000000) scale(0.100000,-0.100000)"
fill="#000000" stroke="none">
<path d="M740 1993 c-8 -3 -37 -17 -65 -30 -27 -13 -75 -34 -105 -45 -121 -46
-197 -97 -298 -199 -124 -125 -128 -230 -14 -346 41 -41 150 -103 184 -103 39
-1 39 -16 5 -95 l-35 -77 19 -87 c10 -47 23 -95 28 -106 20 -41 81 -215 81
-229 0 -8 -4 -18 -10 -21 -13 -8 -13 -72 0 -80 5 -3 15 -15 21 -26 10 -20 9
-20 -19 -5 -16 8 -32 22 -35 29 -10 27 -68 26 -127 -1 -99 -46 -239 -207 -255
-293 -4 -21 22 -79 36 -79 4 0 10 -11 13 -25 4 -14 12 -25 19 -25 7 0 30 -16
52 -36 22 -19 67 -53 99 -75 l59 -39 284 0 284 0 -31 58 -32 58 25 37 c14 21
28 55 32 77 5 29 12 40 24 40 26 0 30 -8 21 -40 -5 -18 -4 -32 3 -39 17 -17
27 -13 27 12 0 28 28 69 43 64 7 -2 10 -19 9 -39 -4 -42 9 -54 40 -37 16 9 23
9 26 0 5 -15 34 -14 59 4 18 13 22 13 27 0 5 -15 62 -15 99 0 9 4 17 3 17 -2
0 -17 30 -10 30 6 1 9 7 30 15 46 l15 30 -5 -35 c-6 -47 6 -66 34 -51 21 12
29 31 12 31 -6 0 -9 19 -8 42 2 42 2 42 -36 43 -44 2 -78 -17 -61 -35 12 -12
7 -60 -6 -60 -14 0 -19 28 -13 66 l6 37 -32 -6 c-32 -7 -65 -36 -76 -68 -6
-16 -44 -33 -54 -23 -11 11 16 59 34 60 11 1 24 2 29 3 13 2 -15 31 -31 31
-22 0 -63 -50 -63 -78 0 -14 -3 -22 -7 -18 -5 4 -8 26 -8 49 l0 42 -50 1 c-27
0 -56 -4 -62 -9 -21 -15 -45 11 -32 34 5 10 13 18 17 18 26 -4 41 3 36 16 -14
36 -94 -7 -94 -51 0 -7 -10 -14 -22 -16 -20 -3 -21 -4 -5 -19 15 -16 15 -21
-1 -70 -16 -51 -40 -71 -49 -41 -3 6 4 12 14 12 17 1 17 1 1 14 -14 10 -16 22
-11 62 12 92 11 99 -17 97 -50 -5 -69 -13 -75 -34 -4 -11 -1 -27 6 -35 27 -32
-1 -23 -41 14 l-43 39 33 84 c42 107 70 198 70 226 0 12 4 23 8 25 12 5 66 86
94 143 32 64 98 265 98 300 0 14 -5 35 -11 46 -6 11 -21 49 -34 83 l-24 64 57
36 c70 44 107 78 161 146 55 70 73 114 73 177 0 69 -30 129 -87 172 -25 18
-45 37 -45 42 0 17 -64 81 -101 100 -31 15 -58 19 -136 18 -54 0 -105 -3 -113
-6z m180 -81 c95 -39 159 -133 167 -245 5 -61 4 -64 -37 -117 -24 -30 -52 -64
-64 -75 -73 -70 -136 -92 -68 -24 43 42 62 96 54 151 -3 20 -8 25 -21 20 -9
-3 1 9 22 27 43 38 46 51 13 51 -19 0 -23 5 -22 28 1 23 -3 27 -25 27 -24 -1
-25 2 -19 31 4 18 4 38 -1 45 -10 16 -38 -6 -80 -64 l-28 -38 -24 36 c-14 20
-34 43 -46 51 -24 17 -45 9 -37 -12 4 -10 -6 -8 -33 8 -63 36 -86 6 -44 -58
14 -21 13 -21 -33 2 -26 13 -53 24 -61 24 -22 0 -15 -32 14 -62 l27 -29 -38 7
c-21 3 -50 3 -64 -1 l-26 -6 38 -32 c27 -23 35 -37 31 -49 -4 -10 -11 -15 -16
-12 -5 3 -9 -15 -9 -39 0 -32 8 -56 30 -88 34 -51 35 -59 15 -99 -17 -33 -30
-32 -84 8 -59 44 -86 139 -67 236 20 105 109 235 182 266 100 43 286 60 354
32z m-180 -486 c41 0 88 4 103 8 27 8 28 7 24 -20 -3 -25 -12 -32 -58 -51 -30
-12 -74 -25 -99 -29 -49 -8 -138 -9 -146 -2 -2 3 3 28 12 57 l15 53 37 -8 c20
-4 71 -8 112 -8z m172 -237 c23 -91 24 -105 12 -135 -15 -36 -34 -53 -34 -31
0 8 -11 18 -25 21 -14 4 -25 13 -25 20 0 23 -50 56 -83 56 -16 0 -46 -10 -66
-22 -20 -13 -38 -22 -41 -21 -3 0 -4 -3 -3 -8 2 -5 0 -8 -5 -6 -4 1 -17 -8
-29 -20 l-21 -21 21 -20 c12 -11 32 -25 45 -31 18 -10 21 -18 17 -44 -7 -42
-14 -63 -37 -116 l-19 -44 -44 67 c-29 45 -49 89 -59 136 -9 37 -21 81 -26 96
-9 22 -5 42 17 105 l28 78 95 0 c94 0 171 10 220 30 14 5 28 10 31 10 3 1 18
-45 31 -100z m-43 -264 c-15 -45 -33 -72 -70 -109 -28 -26 -53 -45 -56 -42
-12 11 -9 136 3 136 6 0 24 16 38 35 22 29 31 33 55 29 17 -4 32 -1 36 6 15
25 13 2 -6 -55z m-108 2 c-9 -9 -14 -8 -21 3 -7 11 -4 17 8 21 21 8 29 -8 13
-24z m59 -616 c0 -6 -4 -13 -10 -16 -5 -3 -10 1 -10 9 0 9 5 16 10 16 6 0 10
-4 10 -9z m13 -46 c-3 -9 -8 -14 -10 -11 -3 3 -2 9 2 15 9 16 15 13 8 -4z
m446 -37 c-12 -20 -14 -21 -17 -5 -2 10 2 25 9 34 18 21 23 0 8 -29z"/>
<path d="M1704 385 c-18 -7 -40 -27 -50 -44 -20 -33 -34 -40 -34 -17 0 38 -93
36 -132 -2 -37 -34 -37 -102 -1 -102 12 0 13 -3 4 -13 -15 -19 -4 -27 41 -27
40 0 50 13 21 28 -21 12 -11 38 19 44 13 3 30 9 39 12 13 6 17 1 17 -20 0 -37
41 -73 76 -67 28 6 75 45 93 78 16 27 26 14 14 -18 -7 -18 -6 -30 3 -43 13
-17 15 -17 40 -1 27 18 28 41 1 31 -11 -4 -12 0 -6 23 6 20 13 27 27 24 18 -3
18 -2 2 15 -16 18 -18 23 -18 44 0 5 -7 7 -15 4 -8 -4 -15 -12 -15 -20 0 -26
-17 -14 -24 17 -11 55 -51 77 -102 54z m-114 -67 c0 -19 -18 -43 -25 -36 -9 9
4 48 16 48 5 0 9 -6 9 -12z m-61 -15 c0 -5 -6 -23 -13 -42 -10 -28 -14 -31
-24 -18 -10 11 -10 20 -1 41 11 23 40 38 38 19z m187 -13 c8 0 14 -5 14 -11 0
-5 4 -8 9 -5 14 9 1 -32 -15 -45 -23 -19 -45 -3 -42 33 2 38 10 58 16 40 2 -7
10 -12 18 -12z"/>
<path d="M1116 352 c-2 -4 0 -14 5 -22 8 -13 10 -13 18 0 10 15 6 30 -9 30 -5
0 -11 -4 -14 -8z"/>
<path d="M990 114 c-14 -36 -12 -54 4 -54 20 0 32 40 15 51 -12 8 -11 11 1 19
10 7 11 10 2 10 -7 0 -17 -12 -22 -26z m12 -36 c-7 -7 -12 -8 -12 -2 0 14 12
26 19 19 2 -3 -1 -11 -7 -17z"/>
<path d="M1370 131 c0 -5 -7 -17 -16 -25 -8 -9 -11 -16 -5 -16 14 0 2 -32 -18
-49 -13 -11 -13 -12 -1 -9 8 3 22 18 30 34 11 23 15 25 18 12 5 -25 29 -22 38
5 l8 22 5 -22 6 -22 12 24 c11 24 10 25 -23 25 -20 0 -34 -5 -34 -12 0 -9 -3
-9 -12 1 -11 10 -9 15 6 27 17 12 18 14 3 14 -9 0 -17 -4 -17 -9z m32 -53 c-7
-7 -12 -8 -12 -2 0 14 12 26 19 19 2 -3 -1 -11 -7 -17z"/>
<path d="M1556 128 c-3 -7 -7 -26 -10 -43 -5 -24 -4 -27 4 -12 6 9 15 15 21
12 5 -4 9 1 9 10 0 9 -4 13 -10 10 -5 -3 -10 1 -10 9 0 8 8 17 18 19 16 4 16
5 -1 6 -10 0 -19 -5 -21 -11z"/>
<path d="M1105 111 c-3 -6 4 -9 15 -8 11 1 20 5 20 9 0 11 -28 10 -35 -1z"/>
<path d="M1270 110 c0 -5 -7 -7 -15 -4 -11 5 -15 -1 -15 -20 0 -23 4 -25 35
-24 20 1 39 6 42 11 3 6 1 7 -5 3 -7 -4 -12 -3 -12 3 0 5 5 13 10 16 6 4 8 11
4 16 -3 5 -10 7 -15 3 -5 -3 -7 -9 -4 -14 3 -5 0 -12 -7 -17 -22 -13 -38 -12
-38 3 0 8 6 11 15 8 9 -4 15 0 15 10 0 9 -2 16 -5 16 -3 0 -5 -4 -5 -10z"/>
<path d="M1493 101 c-7 -11 -10 -27 -7 -36 7 -17 30 -20 39 -5 3 5 0 7 -8 4
-22 -8 -28 10 -12 32 13 17 16 17 26 4 9 -13 10 -13 6 0 -6 23 -30 23 -44 1z"/>
<path d="M1036 86 c5 -22 3 -32 -11 -43 -11 -7 -14 -13 -7 -13 6 0 19 12 28
26 16 24 16 26 0 42 -16 16 -17 15 -10 -12z"/>
<path d="M1143 68 c-8 -30 -7 -38 3 -38 7 0 11 6 8 14 -3 7 2 16 10 19 9 4 16
12 16 19 0 9 -3 8 -10 -2 -6 -9 -10 -10 -10 -3 0 22 21 25 27 4 6 -25 28 -28
37 -5 11 28 6 33 -33 31 -35 -1 -39 -4 -48 -39z m69 10 c-7 -7 -12 -8 -12 -2
0 14 12 26 19 19 2 -3 -1 -11 -7 -17z"/>
<path d="M1593 89 c-3 -12 -11 -18 -19 -15 -8 3 -14 1 -14 -4 0 -14 43 -13 57
1 13 13 6 39 -9 39 -5 0 -12 -9 -15 -21z m22 2 c3 -5 1 -12 -5 -16 -5 -3 -10
1 -10 9 0 18 6 21 15 7z"/>
<path d="M1635 85 c0 -23 3 -25 42 -22 23 1 46 7 50 11 5 5 -1 6 -12 3 -19 -7
-19 -6 -2 7 21 16 22 26 2 26 -8 0 -15 -6 -15 -14 0 -8 -7 -16 -15 -20 -9 -3
-15 0 -15 8 0 8 6 17 13 19 9 4 9 6 -1 6 -7 1 -17 -9 -22 -21 l-9 -23 0 23
c-1 30 -16 28 -16 -3z"/>
<path d="M1112 80 c2 -10 -3 -14 -16 -12 -11 2 -15 -1 -11 -7 8 -14 32 -14 41
0 3 6 1 16 -6 22 -9 9 -11 8 -8 -3z"/>
</g>
</svg>
